<svg width="102" height="74" viewBox="0 0 102 74" fill="none" xmlns="http://www.w3.org/2000/svg">
<path d="M48.0213 5.19602L45.3395 10.392L47.3509 14.1634L49.2784 18.0185L42.9091 30.3381C39.3892 37.2102 36.2045 42.7415 35.9531 42.7415C35.7017 42.7415 32.6847 39.1378 29.4162 34.7798C26.0639 30.4219 23.0469 26.8182 22.7116 26.8182C22.4602 26.8182 20.7003 31.5952 18.9403 37.4616C17.1804 43.4119 15.5043 48.4403 15.169 48.7756C14.9176 49.1108 11.3977 45.5909 7.29119 40.9815C3.26847 36.3722 0 32.9361 0 33.3551C0 33.858 2.09517 40.5625 4.69318 48.3565C7.62642 57.1562 9.47017 64.5312 9.8054 68.0511L10.3082 73.75H51.206H92.1875V69.3082C92.1875 66.2912 93.7798 60.2571 97.2159 49.5298C99.9815 40.9815 102.077 33.9418 101.909 33.7741C101.741 33.6065 98.473 37.0426 94.6179 41.4006C90.0923 46.5966 87.4105 49.1108 87.0753 48.3565C86.8239 47.8537 85.0639 42.4901 83.304 36.5398L80.1193 25.8125L78.108 28.1591C77.0185 29.5 74.0852 33.3551 71.571 36.6236C69.0568 39.9759 66.7102 42.7415 66.2912 42.7415C65.8722 42.7415 62.6875 37.2102 59.2514 30.3381L52.9659 18.0185L54.8935 14.2472L56.821 10.5597L54.223 5.27983C52.7983 2.34659 51.3736 -1.78814e-06 51.1222 -1.78814e-06C50.8707 -1.78814e-06 49.446 2.34659 48.0213 5.19602ZM52.2955 8.88352C52.8821 10.4759 52.2116 13.4091 51.1222 13.4091C50.1165 13.4091 49.3622 10.8111 49.8651 9.13494C50.5355 7.20738 51.625 7.12358 52.2955 8.88352ZM57.4077 34.1932C60.6761 40.4787 63.2741 46.0099 63.2741 46.429C63.2741 46.7642 60.6761 50.6193 57.4077 54.9773L51.5412 62.7713L49.446 60.4247C48.2727 59.1676 45.4233 55.5639 42.9929 52.3793L38.6349 46.7642L44.669 34.696C47.9375 28.0753 50.8707 22.6278 51.1222 22.6278C51.3736 22.6278 54.223 27.8239 57.4077 34.1932ZM29.3324 40.2273L34.3608 46.848L30.5895 54.4744C28.4943 58.581 26.6506 62.017 26.3991 62.017C25.8963 62.017 20.1974 55.8153 18.7727 53.7202C18.0185 52.7145 18.0185 51.5412 18.8565 49.027C19.527 47.1832 20.7841 42.9091 21.7898 39.5568C22.7955 36.2884 23.8011 33.5227 23.9688 33.5227C24.0526 33.5227 26.483 36.5398 29.3324 40.2273ZM81.3764 42.071C82.8849 46.848 84.2259 51.1222 84.3935 51.625C84.7287 52.5469 77.6889 61.2628 76.1804 61.8494C75.7614 62.017 73.75 58.6648 71.6548 54.4744L67.8835 46.9318L72.9957 40.2273C75.8452 36.5398 78.3594 33.5227 78.4432 33.5227C78.6108 33.5227 79.9517 37.3778 81.3764 42.071ZM11.3139 50.7031C13.0739 53.0497 13.4091 54.223 12.9901 56.1506C12.6548 57.5753 12.152 58.6648 11.9006 58.6648C11.5653 58.6648 10.5597 56.2344 9.55398 53.2173C8.6321 50.2003 8.04545 47.7699 8.38068 47.7699C8.71591 47.7699 10.0568 49.1108 11.3139 50.7031ZM92.6065 52.9659C91.7685 55.3963 90.9304 57.7429 90.679 58.1619C90.1761 59.0838 89.0028 56.4858 88.919 54.3906C88.8352 53.0497 93.0256 47.5185 93.696 48.1051C93.8636 48.3565 93.3608 50.5355 92.6065 52.9659ZM41.9034 56.3182C44.4176 59.6705 46.6804 62.6037 46.7642 63.0227C46.9318 63.358 43.2443 63.6932 38.6349 63.6932C33.9418 63.6932 30.1705 63.5256 30.1705 63.2741C30.1705 62.4361 36.456 50.2841 36.875 50.2841C37.1264 50.3679 39.3892 53.0497 41.9034 56.3182ZM71.8224 63.358C71.6548 63.6094 67.7997 63.6094 63.2741 63.5256L55.1449 63.2741L60.4247 56.6534L65.6207 50.0327L68.8892 56.4858C70.733 60.0895 71.9901 63.1903 71.8224 63.358ZM19.946 60.3409L22.7116 63.6932H18.3537C14.75 63.6932 14.1634 63.4418 14.5824 62.3523C14.8338 61.598 15.3366 60.0895 15.5881 59C15.8395 57.9105 16.3423 56.9886 16.6776 56.9886C16.929 56.9886 18.4375 58.4972 19.946 60.3409ZM86.6563 59C86.9077 60.0895 87.4105 61.598 87.6619 62.3523C88.081 63.4418 87.4943 63.6932 83.8068 63.6932H79.4489L82.2145 60.4247C85.5668 56.4858 85.9858 56.402 86.6563 59ZM88.6676 68.8892C88.919 70.3139 86.7401 70.3977 51.206 70.3977C20.2813 70.3977 13.4091 70.2301 13.4091 69.3082C13.4091 68.6378 13.6605 67.8835 13.9957 67.6321C14.2472 67.2969 31.1761 67.1293 51.4574 67.2131C85.902 67.4645 88.4162 67.5483 88.6676 68.8892Z" fill="white"/>
<path d="M33.9418 25.8958C33.439 27.5719 34.1932 30.1699 35.1989 30.1699C36.2884 30.1699 36.9588 27.2367 36.3722 25.6444C35.7017 23.8844 34.6122 23.9682 33.9418 25.8958Z" fill="white"/>
<path d="M65.7885 25.8958C65.2856 27.5719 66.0399 30.1699 67.0456 30.1699C68.1351 30.1699 68.8055 27.2367 68.2189 25.6444C67.5484 23.8844 66.4589 23.9682 65.7885 25.8958Z" fill="white"/>
<path d="M10.5594 34.0261C10.308 34.6966 10.4756 36.1213 11.0623 37.127L11.9841 38.9707L12.8222 37.127C13.6603 35.1994 13.1574 32.6852 11.8165 32.6852C11.3975 32.6852 10.8108 33.2718 10.5594 34.0261Z" fill="white"/>
<path d="M89.17 33.8575C88.8348 34.6118 89.0024 36.1203 89.4215 37.126L90.2595 38.9697L91.2652 36.9584C92.1871 35.366 92.1033 34.7794 91.0138 33.6899C89.8405 32.5166 89.6729 32.5166 89.17 33.8575Z" fill="white"/>
</svg>
